<svg width="48" height="48" viewBox="0 0 48 48" fill="none" xmlns="http://www.w3.org/2000/svg">
<path d="M24 6.47101e-07C19.253 7.75051e-07 14.6126 1.40772 10.6657 4.04512C6.71884 6.68252 3.64271 10.4311 1.82637 14.8169C0.0100293 19.2026 -0.464925 24.0285 0.461572 28.6842C1.38807 33.3399 3.6744 37.6163 7.03142 40.9725C10.3884 44.3288 14.6653 46.6141 19.3213 47.5395C23.9772 48.4649 28.8029 47.9889 33.1883 46.1715C37.5736 44.3541 41.3215 41.2771 43.958 37.3296C46.5945 33.3821 48.0011 28.7414 48 23.9944C48 20.843 47.3792 17.7224 46.173 14.8109C44.9668 11.8994 43.1989 9.25399 40.9702 7.02583C38.7415 4.79767 36.0958 3.03037 33.184 1.82487C30.2722 0.619363 27.1515 -0.00073123 24 6.47101e-07ZM33.8742 26.2568C33.094 27.3712 32.8711 28.1848 32.2025 32.6148C31.9517 34.2865 31.7065 35.7019 31.4502 36.8721C31.4502 36.8721 31.2273 38.4212 31.0769 39.179C30.8188 40.3681 30.4552 41.5317 29.9903 42.6561C29.5278 43.843 28.8758 43.3304 28.8033 42.9403L28.2461 41.3745C28.23 41.341 28.2187 41.3053 28.2127 41.2686C28.0294 40.6624 27.9263 40.0349 27.9062 39.4019C27.8672 38.5103 27.9006 36.7773 27.9006 36.7773C27.8857 35.9045 27.9267 35.0315 28.0232 34.1639C28.4411 30.6701 28.391 29.7785 27.7335 28.8033C27.4666 28.3458 27.1064 27.9495 26.6763 27.6404C26.2462 27.3312 25.7558 27.1161 25.2371 27.009C24.8359 26.9422 22.3172 26.8865 19.6313 26.8976C17.1962 26.8976 13.9643 26.814 12.0474 26.6691C10.9329 26.6691 9.86859 26.6691 8.78199 26.6134C7.52904 26.4827 6.28699 26.263 5.06525 25.9559C-1.1256 24.886 4.8145 24.4458 5.62248 24.0223C6.53673 23.587 7.52219 23.3209 8.53124 23.2366C9.33922 23.1419 10.1472 23.0471 10.9608 22.9635H11.1669C12.7495 22.8855 14.8558 22.8187 16.8117 22.7852C19.9434 22.7852 23.1474 22.6236 23.9387 22.5456C25.6104 22.3506 26.658 21.7543 26.8809 20.9296C27.1205 20.0102 26.424 17.9429 24.652 14.2986C24.0947 13.1841 23.6489 12.2424 23.2979 11.4734C22.9301 10.8159 22.5623 10.1583 22.1834 9.48967C21.7004 8.39305 21.2763 7.27141 20.9129 6.12956C19.7372 3.13165 22.1054 5.57232 22.8855 5.99025C24.078 6.50847 25.9002 8.70397 27.2765 11.3787C31.5895 19.8208 31.9963 20.5173 33.3504 21.5983C34.4648 22.5289 34.6431 22.7574 34.7267 23.5486C34.8326 24.5739 34.6487 25.1312 33.8742 26.2568ZM42.4333 20.9519C41.5974 21.7321 39.9647 22.4063 38.4602 22.88C38.245 22.9565 38.0164 22.9882 37.7886 22.9731C37.5607 22.9579 37.3383 22.8962 37.1352 22.7918C36.9321 22.6873 36.7525 22.5424 36.6076 22.3659C36.4627 22.1894 36.3555 21.985 36.2926 21.7655C36.0975 21.0021 36.7718 20.2944 37.6355 19.7929C37.9654 19.606 38.3125 19.4511 38.6719 19.3304L39.3629 19.1019C41.0346 18.5447 43.0128 18.3329 43.7316 18.7954C44.4504 19.2579 43.1855 20.2498 42.4333 20.9519Z" fill="#491C96"/>
</svg>
